<svg width="189" height="46" fill="none" xmlns="http://www.w3.org/2000/svg"><path fill-rule="evenodd" clip-rule="evenodd" d="M60.824 37.364V45.1H40.008V.353h20.816v7.67h-13.2v10.804h10.535v7.67H47.624v10.866l13.2.001zM82.17 45.1v-7.736l-10.597-.001V.353h-7.616V45.1H82.17zm106.53 0v-7.736h-13.201V26.497h10.535v-7.67h-10.535V8.024H188.7V.353h-20.816V45.1H188.7zM163.459.354h-7.551l-6.793 21.605L142.324.354h-7.552v44.747h7.617v-21.99l2.982 11.378h7.425l3.047-11.378v21.99h7.616V.354zm-39.46 7.67h-5.523v29.34H124l-.001-29.34zm7.68-2.939c0-2.622-2.158-4.731-4.698-4.731l-11.424.001c-2.6 0-4.696 2.109-4.696 4.73V40.37c0 2.557 2.096 4.73 4.696 4.73h11.424c2.54 0 4.698-2.173 4.698-4.73V5.085zM98.971 28.606l7.678-1.79v13.552c0 2.557-2.157 4.73-4.696 4.73H90.528c-2.6 0-4.695-2.173-4.695-4.73V5.084c0-2.622 2.095-4.73 4.695-4.73h11.423c2.54 0 4.697 2.108 4.697 4.73v9.077l-7.678 1.79V8.023h-5.522v29.34h5.522l.001-8.757zM36.241.354h-7.677l-.57 37.01h-.762L22.344.354h-7.552l-4.76 37.01h-.824L8.573.354H.957L2.099 45.1h14.533l1.967-18.474L20.567 45.1h14.47L36.241.354z" fill="#81B3D3"/></svg>