<svg width="256" height="29" fill="none" xmlns="http://www.w3.org/2000/svg"><path fill-rule="evenodd" clip-rule="evenodd" d="M80.774.09l-2.845 4.877H75.2l-.87 1.434h2.757l-6.069 10.383c-1.277 2.208-.376 4.246 2.062 4.246 1.223 0 2.538-.637 3.853-1.621l-.778 1.334h3.046l4.588-7.887c4.644-5.767 6.706-5.02 5.399-2.81l-3.92 6.74c-1.278 2.21-.377 4.248 2.061 4.248 1.796 0 3.788-1.37 5.693-3.205.146 1.857 1.667 3.205 4.09 3.205 3.423 0 6.82-2.64 9.316-5.508-.197-.403-.719-.861-1.126-1.033l-.203.226c-2.178 2.497-4.964 4.475-7.082 4.475-1.86 0-2.964-1.146-1.57-3.555l.29-.52c1.946.805 5.604.431 7.868-3.44l.437-.747c1.625-2.753.058-4.818-2.41-4.818-2.439 0-4.383 1.263-5.66 3.441l-2.93 4.965-.176.2c-2.177 2.494-4.295 4.472-5.631 4.472-.666 0-1.046-.46-.35-1.635l4.355-7.543c1.306-2.265.06-3.9-1.624-3.9-1.307 0-2.702.717-4.21 2.265L91.224.09h-3.019l-8.423 14.438-.17.19c-2.176 2.496-4.297 4.474-5.633 4.474-.667 0-1.044-.46-.346-1.635l6.472-11.158h2.467l.872-1.433h-2.496L83.793.091 80.774.09zM48.465 4.969L51.31.094h3.019l-2.846 4.873h2.499l-.872 1.436h-2.465l-6.476 11.158c-.697 1.175-.319 1.635.348 1.635 1.335 0 3.457-1.979 5.633-4.475l.156-.176 1.237-2.09 1.48-2.553c1.742-2.984 3.54-3.9 5.862-3.9 2.846 0 4.529 2.953 2.701 6.08l-2.845 4.846c1.511-.029 3.194-.744 4.558-2.207l.205-.228c.406.172.928.629 1.128 1.033-1.54 1.806-4.384 2.896-6.184 2.896h-.666c-3.269 4.084-8.616 3.341-8.61-.461-1.866 1.769-3.803 3.073-5.557 3.073-2.438 0-3.339-2.038-2.061-4.247l6.068-10.383h-2.757l.87-1.435h2.73zm10.798 5.998c1.028-1.742.562-2.947-.422-3.037-.765-.07-1.843.536-2.77 2.092l-1.451 2.437-2.294 3.928c-1.8 3.097 1.657 3.556 3.079 1.146l.03-.056c-.175-.288-.291-.633-.291-1.004 0-.975.783-1.779 1.77-1.779h.145l2.204-3.727zm43.312-.031c1.012-1.744.48-2.661-.489-2.604v.001c-.752.044-1.769.678-2.532 1.97l-1.946 3.357c1.133.402 3.08.46 4.53-1.978l.437-.746zm43.829-8.067c-1.714 1.52-1.858 3.214-.783 4.59l.262.344-.062.0869c-1.329 1.856-3.103 4.3356-5.048 6.5971l.002.003-.203.229c-1.365 1.461-3.046 2.18-4.558 2.209l2.843-4.848c1.83-3.126.147-6.08-2.7-6.08-2.32 0-4.12.918-5.86 3.9l-1.484 2.553-1.238 2.092-.154.176c-2.497 2.84-4.643 4.671-7.025 5.676l6.763-11.414h-1.77c0-1.234-1.276-2.87-3.164-2.87-1.624 0-3.89 1.265-5.168 3.444l-4.238 7.227c-1.278 2.208-.378 4.246 2.06 4.246.843 0 1.86-.374 2.877-1.004l-.843 1.404c-4.064 1.233-6.62 2.868-6.62 5.106 0 2.869 4.442 3.471 6.62-.2l2.292-3.93c2.416-.743 4.783-2.147 7.24-4.464-.021 3.817 5.337 4.567 8.61.476h.668c1.8 0 4.645-1.089 6.184-2.896 1.449-1.664 2.58-3.155 4.99-6.395l.405.489c.377.487.525 1.09.175 1.691l-3.193 5.479c-1.28 2.21-.379 4.246 2.061 4.246 1.53 0 3.204-.995 4.842-2.422-.05 1.386.887 2.422 2.619 2.422.84 0 1.857-.373 2.874-1.004l-.842 1.402c-4.065 1.233-6.616 2.868-6.616 5.106 0 2.869 4.44 3.47 6.616-.2l2.292-3.93c2.46-.758 4.87-2.206 7.377-4.599.136 1.868 1.658 3.225 4.09 3.225 2.458 0 4.899-1.363 7.004-3.19-.117 3.905 5.31 4.703 8.612.578h.668c.945 0 2.175-.308 3.357-.853-.813 2.073-.066 3.465 1.661 3.465 1.656 0 3.513-1.492 4.964-2.868-.29 1.605.667 2.868 2.584 2.868 2.496 0 5.37-2.637 7.868-5.506l-.002-.002c1.355-1.5444 2.583-3.1759 3.57-4.4857v-.0002c.26-.3456.504-.6688.728-.9621-.4 1.0402-.594 2.359-.784 3.6518-.375 2.5549-.736 5.0082-2.642 5.0082-1.016 0-1.42-1.09-1.42-1.09l-1.89.975s.551 2.412 3.31 2.412c.268 0 .512-.0256.774-.0531l.066-.0069c.015 0 .03-.0068.046-.0135.015-.0068.03-.0135.045-.0135 3.076-.4 6.124-2.81 8.388-5.42-.173-.459-.696-.918-1.13-1.034l-.203.229a18.8498 18.8498 0 01-3.63 3.24c.375-1.1138.572-2.4613.785-3.918.331-2.2578.699-4.7777 1.829-7.096l-2.264-1.205c-.231.3129-.512.7012-.835 1.1462-1.423 1.963-3.646 5.0299-5.871 7.6018v.002l-.203.229c-2.176 2.496-4.295 4.472-5.631 4.472-.667 0-1.045-.459-.347-1.634l6.444-11.158h-3.02l-5.37 9.265c-2.293 2.064-4.062 3.212-4.644 2.953-.7-.2913-.101-1.2757.291-1.9202.031-.0502.06-.0983.087-.1438l5.893-10.152h-3.02l-4.734 8.092-.199.226c-1.364 1.463-3.047 2.18-4.558 2.21l2.845-4.849c1.828-3.127.15-6.08-2.699-6.08-2.323 0-4.123.918-5.864 3.903l-1.482 2.55-1.237 2.09-.155.178c-2.176 2.496-4.964 4.473-7.083 4.473-1.858 0-2.96-1.146-1.567-3.555l.29-.518c1.944.804 5.604.43 7.867-3.443l.438-.746c1.623-2.754.058-4.819-2.41-4.819-2.44 0-4.387 1.265-5.663 3.444l-2.926 4.965-.175.197c-2.499 2.84-4.645 4.673-7.028 5.678l6.764-11.416h-1.772c0-1.234-1.277-2.868-3.164-2.868-1.625 0-3.889 1.263-5.167 3.442l-2.896 4.937-.008-.004-.203.23c-2.176 2.495-4.298 4.474-5.634 4.474-.667 0-1.042-.46-.346-1.635l3.018-5.22c1.045-1.807.551-2.87-.437-4.046l-1.683-2.01c-.435-.545-.435-1.146.175-1.72l-1.568-1.694zm-9.87 8.098c1.027-1.742.56-2.948-.424-3.038v.001c-.764-.07-1.84.536-2.768 2.092l-1.453 2.437-2.292 3.928c-1.8 3.097 1.656 3.556 3.078 1.146l.028-.056c-.174-.288-.29-.633-.29-1.004 0-.975.784-1.779 1.77-1.779h.147l2.204-3.727zm49.734-3.038c.984.09 1.453 1.296.426 3.038l-2.206 3.727h-.147c-.986 0-1.768.804-1.768 1.779 0 .371.116.716.289 1.004l-.03.056c-1.421 2.41-4.875 1.951-3.075-1.146l2.292-3.928 1.451-2.437c.927-1.556 2.003-2.162 2.768-2.092v-.001zm-11.215 3.007c1.012-1.743.483-2.659-.485-2.602v.001c-.752.044-1.77.678-2.532 1.97l-1.948 3.355c1.133.402 3.079.46 4.53-1.978l.435-.746zm-52.888-2.401c1.023-.006 1.678.884.845 2.4l-2.292 3.96c-1.83 2.897-3.66 4.3-4.938 4.3-.667 0-1.045-.459-.349-1.634l4.212-7.256c.71-1.217 1.727-1.765 2.522-1.77zm39.768 2.4c.833-1.516.178-2.406-.845-2.4-.795.005-1.812.553-2.522 1.77l-4.21 7.256c-.694 1.175-.318 1.634.349 1.634 1.276 0 3.108-1.403 4.936-4.3l2.292-3.96zM115.75 23.443l-.001.0013c-2.29.8879-3.017 1.7758-3.017 2.5497 0 .803 1.016.974 1.654-.144l1.363-2.4057.001-.0003v-.001zm38.924.0013l.001-.0013v.001l-.001.0003zm0 0l-1.361 2.4057c-.64 1.118-1.656.947-1.656.144 0-.7739.726-1.6618 3.017-2.5497zM.025 11.831h28.922v1.95H.025v-1.95zm255.952 0h-28.922v1.95h28.922v-1.95z" fill="#766458"/></svg>